<svg id="kity_svg_6" xmlns="http://www.w3.org/2000/svg" xmlns:xlink="http://www.w3.org/1999/xlink" version="1.1" width="1354" height="845" style="background: rgb(251, 251, 251); visibility: visible;" viewBox="0 0 1354 845"><defs id="kity_defs_7"><linearGradient id="kity_linearGradient_17" x1="0" y1="0" x2="0" y2="1"><stop id="kity_stop_18" offset="0" stop-color="rgb(255, 255, 255)"></stop><stop id="kity_stop_19" offset="1" stop-color="rgb(204, 204, 204)"></stop></linearGradient><marker id="kity_marker_2" orient="auto" refX="6" refY="0" viewBox="-7 -7 14 14" markerWidth="7" markerHeight="7" markerUnits="userSpaceOnUse"><path id="kity_path_3" fill="rgb(115, 161, 191)" stroke="none" d="M6,0A6,6,0,1,1,-6,0A6,6,0,1,1,6,0"></path></marker><marker id="kity_marker_4" orient="auto" refX="6" refY="0" viewBox="-7 -7 14 14" markerWidth="7" markerHeight="7" markerUnits="userSpaceOnUse"><path id="kity_path_5" fill="rgb(115, 161, 191)" stroke="none" d="M6,0A6,6,0,1,1,-6,0A6,6,0,1,1,6,0"></path></marker></defs><g id="kity_g_8"><g id="minder1" text-rendering="geometricPrecision"><g id="minder_connect_group1"><path id="kity_path_31" fill="none" stroke="rgb(115, 161, 191)" stroke-width="1" d="M623.50001950562,704.5000146478415A188.93596798915766,188.93596798915766,0,0,1,211.50001950562,473.50001464784145"></path><path id="kity_path_79" fill="none" stroke="rgb(115, 161, 191)" stroke-width="1" d="M211.50001950562,473.50001464784145A441.8034065056538,441.8034065056538,0,0,1,514.00001950562,151.50001464784145"></path><path id="kity_path_87" fill="none" stroke="rgb(115, 161, 191)" stroke-width="1" d="M514.00001950562,151.50001464784145A515.9275627450039,515.9275627450039,0,0,1,1029.50001950562,172.50001464784145"></path><path id="kity_path_95" fill="none" stroke="rgb(115, 161, 191)" stroke-width="1" d="M1029.50001950562,172.50001464784145A416.673733273409,416.673733273409,0,0,1,1173.50001950562,563.5000146478415"></path><path id="kity_path_103" fill="none" stroke="rgb(115, 161, 191)" stroke-width="1" d="M1029.50001950562,172.50001464784145A56.66039180944657,56.66039180944657,0,0,1,892.50001950562,208.50001464784145"></path><path id="kity_path_111" fill="none" stroke="rgb(115, 161, 191)" stroke-width="1" d="M892.50001950562,208.50001464784145A210.304541082688,210.304541082688,0,0,1,1004.50001950562,30.500014647841454"></path><path id="kity_path_119" fill="none" stroke="rgb(115, 161, 191)" stroke-width="1" d="M1004.50001950562,30.500014647841454A320.1562118716424,320.1562118716424,0,0,1,1300.50001950562,152.50001464784145"></path><path id="kity_path_127" fill="none" stroke="rgb(115, 161, 191)" stroke-width="1" d="M211.50001950562,473.50001464784145A69.60114941579629,69.60114941579629,0,0,1,50.50001950562,407.50001464784145"></path><path id="kity_path_135" fill="none" stroke="rgb(115, 161, 191)" stroke-width="1" d="M50.50001950562,407.50001464784145A163.356205881503,163.356205881503,0,0,1,158.00001950562,284.50001464784145"></path><path id="kity_path_143" fill="none" stroke="rgb(115, 161, 191)" stroke-width="1" d="M158.00001950562,284.50001464784145A230.95670589961227,230.95670589961227,0,0,1,387.00001950562,314.50001464784145"></path><path id="kity_path_151" fill="none" stroke="rgb(115, 161, 191)" stroke-width="1" d="M387.00001950562,314.50001464784145A149.60280746028798,149.60280746028798,0,0,1,437.00001950562,455.50001464784145"></path><path id="kity_path_159" fill="none" stroke="rgb(115, 161, 191)" stroke-width="1" d="M1173.50001950562,563.5000146478415A50.21553544472069,50.21553544472069,0,0,1,1057.50001950562,515.5000146478415"></path><path id="kity_path_167" fill="none" stroke="rgb(115, 161, 191)" stroke-width="1" d="M1057.50001950562,515.5000146478415A102.55242561733974,102.55242561733974,0,0,1,1131.50001950562,444.50001464784145"></path></g><g id="minder_node1"><path id="node_outline1" fill="rgb(115, 161, 191)" stroke="rgb(115, 161, 191)" d="M585.50001950562,684.5000146478415h76a5,5,0,0,1,5,5v30a5,5,0,0,1,-5,5h-76a5,5,0,0,1,-5,-5v-30a5,5,0,0,1,5,-5z" stroke-width="3"></path><g id="node_text1" fill="white"><text id="kity_text_22" text-rendering="inherit" font-size="16" dy=".8em" y="694.1000144809484" x="604.50001950562">Page</text></g></g><g id="kity_g_14" display="none"><path id="kity_path_15" fill="none" stroke="none" d="M604.50001950562,704.5000146478415h0v0h0z"></path><path id="kity_path_16" fill="none" stroke="none"></path></g><g id="minder_node2"><g id="node_expander1" style="cursor: pointer;"><path id="kity_path_36" fill="white" stroke="gray" d="M184.50000680983067,473.500007763505A6,6,0,1,1,172.50000680983067,473.500007763505A6,6,0,1,1,184.50000680983067,473.500007763505"></path><path id="kity_path_37" fill="none" stroke="gray" d="M174.00000680983067,473.500007763505L183.00000680983067,473.500007763505"></path></g><path id="node_outline2" fill="rgb(238, 243, 246)" stroke="rgb(115, 161, 191)" d="M149.5000064522028,460.500007763505h124a3,3,0,0,1,3,3v20a3,3,0,0,1,-3,3h-124a3,3,0,0,1,-3,-3v-20a3,3,0,0,1,3,-3z" stroke-width="1"></path><g id="node_text2" fill="black"><text id="kity_text_33" text-rendering="inherit" font-size="14" dy=".8em" y="464.4000077962875" x="166.5000064522028">github action</text></g></g><g id="minder_node8" opacity="1"><g id="node_expander7" style="cursor: pointer;" display="none"><path id="kity_path_84" fill="white" stroke="gray" d="M516.5000167042017,151.49999816715717A6,6,0,1,1,504.5000167042017,151.49999816715717A6,6,0,1,1,516.5000167042017,151.49999816715717"></path><path id="kity_path_85" fill="none" stroke="gray"></path></g><path id="node_outline8" fill="rgb(238, 243, 246)" stroke="rgb(115, 161, 191)" d="M481.50001634657383,138.49999816715717h65a3,3,0,0,1,3,3v20a3,3,0,0,1,-3,3h-65a3,3,0,0,1,-3,-3v-20a3,3,0,0,1,3,-3z" stroke-width="1"></path><g id="node_text8" fill="black"><text id="kity_text_81" text-rendering="inherit" font-size="14" dy=".8em" y="142.39999819993972" x="498.50001634657383">repo</text></g></g><g id="minder_node9"><g id="node_expander8" style="cursor: pointer;"><path id="kity_path_92" fill="white" stroke="gray" d="M1021.5000317543745,172.49999879300594A6,6,0,1,1,1009.5000317543745,172.49999879300594A6,6,0,1,1,1021.5000317543745,172.49999879300594"></path><path id="kity_path_93" fill="none" stroke="gray" d="M1011.0000317543745,172.49999879300594L1020.0000317543745,172.49999879300594"></path></g><path id="node_outline9" fill="rgb(238, 243, 246)" stroke="rgb(115, 161, 191)" d="M986.5000313967466,159.49999879300594h86a3,3,0,0,1,3,3v20a3,3,0,0,1,-3,3h-86a3,3,0,0,1,-3,-3v-20a3,3,0,0,1,3,-3z" stroke-width="1"></path><g id="node_text9" fill="black"><text id="kity_text_89" text-rendering="inherit" font-size="14" dy=".8em" y="163.3999988257885" x="1003.5000313967466">commit</text></g></g><g id="minder_node10" opacity="1"><g id="node_expander9" style="cursor: pointer;"><path id="kity_path_100" fill="white" stroke="gray" d="M1163.5000359863043,563.500010445714A6,6,0,1,1,1151.5000359863043,563.500010445714A6,6,0,1,1,1163.5000359863043,563.500010445714"></path><path id="kity_path_101" fill="none" stroke="gray" d="M1153.0000359863043,563.500010445714L1162.0000359863043,563.500010445714"></path></g><path id="node_outline10" fill="rgb(238, 243, 246)" stroke="rgb(115, 161, 191)" d="M1128.5000356286764,550.500010445714h90a3,3,0,0,1,3,3v20a3,3,0,0,1,-3,3h-90a3,3,0,0,1,-3,-3v-20a3,3,0,0,1,3,-3z" stroke-width="1"></path><g id="node_text10" fill="black"><text id="kity_text_97" text-rendering="inherit" font-size="14" dy=".8em" y="554.4000104784966" x="1145.5000356286764">本地克隆</text></g></g><g id="minder_node11" opacity="1"><g id="node_expander10" style="cursor: pointer;" display="none"><path id="kity_path_108" fill="white" stroke="gray" d="M900.5000281482935,208.49999986588955A6,6,0,1,1,888.5000281482935,208.49999986588955A6,6,0,1,1,900.5000281482935,208.49999986588955"></path><path id="kity_path_109" fill="none" stroke="gray"></path></g><path id="node_outline11" fill="none" stroke="none" d="M869.500027552247,197.49999986588955h46a5,5,0,0,1,5,5v12a5,5,0,0,1,-5,5h-46a5,5,0,0,1,-5,-5v-12a5,5,0,0,1,5,-5z" stroke-width="3"></path><g id="node_text11" fill="black"><text id="kity_text_105" text-rendering="inherit" font-size="12" dy=".8em" y="200.69999993940195" x="874.500027552247">服务器</text></g></g><g id="minder_node12" opacity="1"><g id="node_expander11" style="cursor: pointer;" display="none"><path id="kity_path_116" fill="white" stroke="gray" d="M998.5000310689211,30.499994561076164A6,6,0,1,1,986.5000310689211,30.499994561076164A6,6,0,1,1,998.5000310689211,30.499994561076164"></path><path id="kity_path_117" fill="none" stroke="gray"></path></g><path id="node_outline12" fill="none" stroke="none" d="M967.5000304728746,19.499994561076164h74a5,5,0,0,1,5,5v12a5,5,0,0,1,-5,5h-74a5,5,0,0,1,-5,-5v-12a5,5,0,0,1,5,-5z" stroke-width="3"></path><g id="node_text12" fill="black"><text id="kity_text_113" text-rendering="inherit" font-size="12" dy=".8em" y="22.699994634588563" x="972.5000304728746">ppemail.py</text></g></g><g id="minder_node13" opacity="1"><g id="node_expander12" style="cursor: pointer;" display="none"><path id="kity_path_124" fill="white" stroke="gray" d="M1302.500040128827,152.4999981969595A6,6,0,1,1,1290.500040128827,152.4999981969595A6,6,0,1,1,1302.500040128827,152.4999981969595"></path><path id="kity_path_125" fill="none" stroke="gray"></path></g><path id="node_outline13" fill="none" stroke="none" d="M1271.5000395327806,141.4999981969595h58a5,5,0,0,1,5,5v12a5,5,0,0,1,-5,5h-58a5,5,0,0,1,-5,-5v-12a5,5,0,0,1,5,-5z" stroke-width="3"></path><g id="node_text13" fill="black"><text id="kity_text_121" text-rendering="inherit" font-size="12" dy=".8em" y="144.6999982704719" x="1276.5000395327806">接受邮件</text></g></g><g id="minder_node14" opacity="1"><g id="node_expander13" style="cursor: pointer;" display="none"><path id="kity_path_132" fill="white" stroke="gray" d="M75.50000356137753,407.5000057965517A6,6,0,1,1,63.500003561377525,407.5000057965517A6,6,0,1,1,75.50000356137753,407.5000057965517"></path><path id="kity_path_133" fill="none" stroke="gray"></path></g><path id="node_outline14" fill="none" stroke="none" d="M25.500002399086952,396.5000057965517h50a5,5,0,0,1,5,5v12a5,5,0,0,1,-5,5h-50a5,5,0,0,1,-5,-5v-12a5,5,0,0,1,5,-5z" stroke-width="3"></path><g id="node_text14" fill="black"><text id="kity_text_129" text-rendering="inherit" font-size="12" dy=".8em" y="399.7000058700641" x="30.500002399086952">deploy</text></g></g><g id="minder_node15" opacity="1"><g id="node_expander14" style="cursor: pointer;" display="none"><path id="kity_path_140" fill="white" stroke="gray" d="M176.5000065714121,284.50000213086605A6,6,0,1,1,164.5000065714121,284.50000213086605A6,6,0,1,1,176.5000065714121,284.50000213086605"></path><path id="kity_path_141" fill="none" stroke="gray"></path></g><path id="node_outline15" fill="none" stroke="none" d="M126.50000540912151,273.50000213086605h63a5,5,0,0,1,5,5v12a5,5,0,0,1,-5,5h-63a5,5,0,0,1,-5,-5v-12a5,5,0,0,1,5,-5z" stroke-width="3"></path><g id="node_text15" fill="black"><text id="kity_text_137" text-rendering="inherit" font-size="12" dy=".8em" y="276.70000220437845" x="131.5000054091215">build site</text></g></g><g id="minder_node16" opacity="1"><g id="node_expander15" style="cursor: pointer;" display="none"><path id="kity_path_148" fill="white" stroke="gray" d="M390.5000129491091,314.5000030249357A6,6,0,1,1,378.5000129491091,314.5000030249357A6,6,0,1,1,390.5000129491091,314.5000030249357"></path><path id="kity_path_149" fill="none" stroke="gray"></path></g><path id="node_outline16" fill="none" stroke="none" d="M340.5000117868185,303.5000030249357h93a5,5,0,0,1,5,5v12a5,5,0,0,1,-5,5h-93a5,5,0,0,1,-5,-5v-12a5,5,0,0,1,5,-5z" stroke-width="3"></path><g id="node_text16" fill="black"><text id="kity_text_145" text-rendering="inherit" font-size="12" dy=".8em" y="306.7000030984481" x="345.5000117868185">preprocess.py</text></g></g><g id="minder_node17" opacity="1"><g id="node_expander16" style="cursor: pointer;" display="none"><path id="kity_path_156" fill="white" stroke="gray" d="M431.5000141710043,455.5000072270632A6,6,0,1,1,419.5000141710043,455.5000072270632A6,6,0,1,1,431.5000141710043,455.5000072270632"></path><path id="kity_path_157" fill="none" stroke="gray"></path></g><path id="node_outline17" fill="none" stroke="none" d="M381.5000130087137,444.5000072270632h111a5,5,0,0,1,5,5v12a5,5,0,0,1,-5,5h-111a5,5,0,0,1,-5,-5v-12a5,5,0,0,1,5,-5z" stroke-width="3"></path><g id="node_text17" fill="black"><text id="kity_text_153" text-rendering="inherit" font-size="12" dy=".8em" y="447.7000073005756" x="386.5000130087137">install dependency</text></g></g><g id="kity_g_12" display="none"><path id="kity_path_13" fill="none" stroke="rgb(66, 94, 112)" d="M481.50001950562,138.50001464784145h65a3,3,0,0,1,3,3v20a3,3,0,0,1,-3,3h-65a3,3,0,0,1,-3,-3v-20a3,3,0,0,1,3,-3z" stroke-width="5"></path></g><g id="minder_node18" opacity="1"><g id="node_expander17" style="cursor: pointer;" display="none"><path id="kity_path_164" fill="white" stroke="gray" d="M1061.5000329464674,515.5000090152025A6,6,0,1,1,1049.5000329464674,515.5000090152025A6,6,0,1,1,1061.5000329464674,515.5000090152025"></path><path id="kity_path_165" fill="none" stroke="gray"></path></g><path id="node_outline18" fill="none" stroke="none" d="M1028.5000322908163,504.5000090152025h58a5,5,0,0,1,5,5v12a5,5,0,0,1,-5,5h-58a5,5,0,0,1,-5,-5v-12a5,5,0,0,1,5,-5z" stroke-width="3"></path><g id="node_text18" fill="black"><text id="kity_text_161" text-rendering="inherit" font-size="12" dy=".8em" y="507.700009088715" x="1033.5000322908163">本地部署</text></g></g><g id="minder_node19"><g id="node_expander18" style="cursor: pointer;" display="none"><path id="kity_path_172" fill="white" stroke="gray" d="M1147.5000355094671,444.50000689923763A6,6,0,1,1,1135.5000355094671,444.50000689923763A6,6,0,1,1,1147.5000355094671,444.50000689923763"></path><path id="kity_path_173" fill="none" stroke="gray"></path></g><path id="node_outline19" fill="none" stroke="none" d="M1114.500034853816,433.50000689923763h34a5,5,0,0,1,5,5v12a5,5,0,0,1,-5,5h-34a5,5,0,0,1,-5,-5v-12a5,5,0,0,1,5,-5z" stroke-width="3"></path><g id="node_text19" fill="black"><text id="kity_text_169" text-rendering="inherit" font-size="12" dy=".8em" y="436.70000697275003" x="1119.500034853816">修改</text></g></g></g></g></svg>